<mxfile host="app.diagrams.net" modified="2020-10-30T21:06:54.043Z" agent="5.0 (Windows NT 10.0; Win64; x64) AppleWebKit/537.36 (KHTML, like Gecko) Chrome/86.0.4240.111 Safari/537.36" etag="0EUbZO1VYW32q4uCCufo" version="13.8.8" type="github">
  <diagram id="x7DbP_pheUWuzvvZT-iy" name="Page-1">
    <mxGraphModel dx="1695" dy="1619" grid="1" gridSize="10" guides="1" tooltips="1" connect="1" arrows="1" fold="1" page="1" pageScale="1" pageWidth="827" pageHeight="1169" math="0" shadow="0">
      <root>
        <mxCell id="0" />
        <mxCell id="1" parent="0" />
        <mxCell id="hvpdyd5kps7s42NE-Zhm-1" value="Employee" style="rounded=0;whiteSpace=wrap;html=1;" parent="1" vertex="1">
          <mxGeometry x="180" y="20" width="120" height="60" as="geometry" />
        </mxCell>
        <mxCell id="hvpdyd5kps7s42NE-Zhm-2" value="Manager" style="rounded=0;whiteSpace=wrap;html=1;" parent="1" vertex="1">
          <mxGeometry x="550" y="180" width="120" height="60" as="geometry" />
        </mxCell>
        <mxCell id="hvpdyd5kps7s42NE-Zhm-3" value="Timecard" style="rounded=0;whiteSpace=wrap;html=1;" parent="1" vertex="1">
          <mxGeometry x="790" y="10" width="120" height="60" as="geometry" />
        </mxCell>
        <mxCell id="hvpdyd5kps7s42NE-Zhm-4" value="ID" style="ellipse;whiteSpace=wrap;html=1;fontStyle=4" parent="1" vertex="1">
          <mxGeometry y="90" width="120" height="80" as="geometry" />
        </mxCell>
        <mxCell id="hvpdyd5kps7s42NE-Zhm-5" value="Name" style="ellipse;whiteSpace=wrap;html=1;" parent="1" vertex="1">
          <mxGeometry x="10" y="-50" width="120" height="80" as="geometry" />
        </mxCell>
        <mxCell id="hvpdyd5kps7s42NE-Zhm-6" value="Address&lt;span style=&quot;color: rgba(0 , 0 , 0 , 0) ; font-family: monospace ; font-size: 0px&quot;&gt;%3CmxGraphModel%3E%3Croot%3E%3CmxCell%20id%3D%220%22%2F%3E%3CmxCell%20id%3D%221%22%20parent%3D%220%22%2F%3E%3CmxCell%20id%3D%222%22%20value%3D%22%22%20style%3D%22ellipse%3BwhiteSpace%3Dwrap%3Bhtml%3D1%3B%22%20vertex%3D%221%22%20parent%3D%221%22%3E%3CmxGeometry%20y%3D%22-20%22%20width%3D%22120%22%20height%3D%2280%22%20as%3D%22geometry%22%2F%3E%3C%2FmxCell%3E%3C%2Froot%3E%3C%2FmxGraphModel%3E&lt;/span&gt;" style="ellipse;whiteSpace=wrap;html=1;" parent="1" vertex="1">
          <mxGeometry x="110" y="160" width="120" height="80" as="geometry" />
        </mxCell>
        <mxCell id="hvpdyd5kps7s42NE-Zhm-7" value="ID" style="ellipse;whiteSpace=wrap;html=1;fontStyle=4" parent="1" vertex="1">
          <mxGeometry x="990" width="120" height="80" as="geometry" />
        </mxCell>
        <mxCell id="hvpdyd5kps7s42NE-Zhm-8" value="Date" style="ellipse;whiteSpace=wrap;html=1;" parent="1" vertex="1">
          <mxGeometry x="990" y="-100" width="120" height="80" as="geometry" />
        </mxCell>
        <mxCell id="hvpdyd5kps7s42NE-Zhm-9" value="Hours" style="ellipse;whiteSpace=wrap;html=1;" parent="1" vertex="1">
          <mxGeometry x="850" y="-130" width="120" height="80" as="geometry" />
        </mxCell>
        <mxCell id="hvpdyd5kps7s42NE-Zhm-12" value="Name" style="ellipse;whiteSpace=wrap;html=1;" parent="1" vertex="1">
          <mxGeometry x="640" y="280" width="120" height="80" as="geometry" />
        </mxCell>
        <mxCell id="hvpdyd5kps7s42NE-Zhm-13" value="ID" style="ellipse;whiteSpace=wrap;html=1;fontStyle=4" parent="1" vertex="1">
          <mxGeometry x="430" y="280" width="120" height="80" as="geometry" />
        </mxCell>
        <mxCell id="hvpdyd5kps7s42NE-Zhm-14" value="Status" style="ellipse;whiteSpace=wrap;html=1;" parent="1" vertex="1">
          <mxGeometry x="900" y="100" width="120" height="80" as="geometry" />
        </mxCell>
        <mxCell id="hvpdyd5kps7s42NE-Zhm-16" value="FirstName" style="ellipse;whiteSpace=wrap;html=1;" parent="1" vertex="1">
          <mxGeometry x="-140" y="-110" width="120" height="80" as="geometry" />
        </mxCell>
        <mxCell id="hvpdyd5kps7s42NE-Zhm-17" value="LastName" style="ellipse;whiteSpace=wrap;html=1;" parent="1" vertex="1">
          <mxGeometry x="10" y="-170" width="120" height="80" as="geometry" />
        </mxCell>
        <mxCell id="hvpdyd5kps7s42NE-Zhm-24" value="" style="endArrow=none;html=1;exitX=1;exitY=0;exitDx=0;exitDy=0;" parent="1" source="hvpdyd5kps7s42NE-Zhm-5" target="hvpdyd5kps7s42NE-Zhm-17" edge="1">
          <mxGeometry width="50" height="50" relative="1" as="geometry">
            <mxPoint x="280" y="10" as="sourcePoint" />
            <mxPoint x="330" y="-40" as="targetPoint" />
            <Array as="points" />
          </mxGeometry>
        </mxCell>
        <mxCell id="hvpdyd5kps7s42NE-Zhm-27" value="FirstName" style="ellipse;whiteSpace=wrap;html=1;" parent="1" vertex="1">
          <mxGeometry x="535" y="390" width="120" height="80" as="geometry" />
        </mxCell>
        <mxCell id="hvpdyd5kps7s42NE-Zhm-28" value="LastName" style="ellipse;whiteSpace=wrap;html=1;" parent="1" vertex="1">
          <mxGeometry x="770" y="370" width="120" height="80" as="geometry" />
        </mxCell>
        <mxCell id="hvpdyd5kps7s42NE-Zhm-29" value="" style="endArrow=none;html=1;entryX=0.296;entryY=0.944;entryDx=0;entryDy=0;entryPerimeter=0;" parent="1" source="hvpdyd5kps7s42NE-Zhm-27" target="hvpdyd5kps7s42NE-Zhm-12" edge="1">
          <mxGeometry width="50" height="50" relative="1" as="geometry">
            <mxPoint x="360" y="450" as="sourcePoint" />
            <mxPoint x="410" y="400" as="targetPoint" />
          </mxGeometry>
        </mxCell>
        <mxCell id="hvpdyd5kps7s42NE-Zhm-31" value="" style="endArrow=none;html=1;entryX=1;entryY=1;entryDx=0;entryDy=0;" parent="1" source="hvpdyd5kps7s42NE-Zhm-28" target="hvpdyd5kps7s42NE-Zhm-12" edge="1">
          <mxGeometry width="50" height="50" relative="1" as="geometry">
            <mxPoint x="460.0049178654291" y="450.29912234114204" as="sourcePoint" />
            <mxPoint x="514.36" y="389.9999999999998" as="targetPoint" />
          </mxGeometry>
        </mxCell>
        <mxCell id="hvpdyd5kps7s42NE-Zhm-33" value="" style="endArrow=none;html=1;exitX=1;exitY=0.5;exitDx=0;exitDy=0;" parent="1" source="hvpdyd5kps7s42NE-Zhm-1" target="hvpdyd5kps7s42NE-Zhm-3" edge="1">
          <mxGeometry width="50" height="50" relative="1" as="geometry">
            <mxPoint x="570" y="65" as="sourcePoint" />
            <mxPoint x="620" y="15" as="targetPoint" />
          </mxGeometry>
        </mxCell>
        <mxCell id="hvpdyd5kps7s42NE-Zhm-34" value="Submit" style="rhombus;whiteSpace=wrap;html=1;" parent="1" vertex="1">
          <mxGeometry x="520" width="150" height="80" as="geometry" />
        </mxCell>
        <mxCell id="hvpdyd5kps7s42NE-Zhm-35" value="N" style="text;html=1;align=center;verticalAlign=middle;resizable=0;points=[];autosize=1;" parent="1" vertex="1">
          <mxGeometry x="300" y="30" width="20" height="20" as="geometry" />
        </mxCell>
        <mxCell id="hvpdyd5kps7s42NE-Zhm-37" value="1" style="text;html=1;align=center;verticalAlign=middle;resizable=0;points=[];autosize=1;" parent="1" vertex="1">
          <mxGeometry x="770" y="20" width="20" height="20" as="geometry" />
        </mxCell>
        <mxCell id="hvpdyd5kps7s42NE-Zhm-38" value="NotApproved" style="ellipse;whiteSpace=wrap;html=1;" parent="1" vertex="1">
          <mxGeometry x="1060" y="130" width="120" height="80" as="geometry" />
        </mxCell>
        <mxCell id="hvpdyd5kps7s42NE-Zhm-39" value="Pending&amp;nbsp;" style="ellipse;whiteSpace=wrap;html=1;" parent="1" vertex="1">
          <mxGeometry x="1020" y="230" width="120" height="80" as="geometry" />
        </mxCell>
        <mxCell id="hvpdyd5kps7s42NE-Zhm-40" value="Approved" style="ellipse;whiteSpace=wrap;html=1;" parent="1" vertex="1">
          <mxGeometry x="870" y="220" width="120" height="80" as="geometry" />
        </mxCell>
        <mxCell id="hvpdyd5kps7s42NE-Zhm-41" value="" style="endArrow=none;html=1;exitX=0.774;exitY=0.957;exitDx=0;exitDy=0;exitPerimeter=0;entryX=0.238;entryY=0.082;entryDx=0;entryDy=0;entryPerimeter=0;" parent="1" source="hvpdyd5kps7s42NE-Zhm-14" target="hvpdyd5kps7s42NE-Zhm-39" edge="1">
          <mxGeometry width="50" height="50" relative="1" as="geometry">
            <mxPoint x="990" y="230" as="sourcePoint" />
            <mxPoint x="1040" y="180" as="targetPoint" />
          </mxGeometry>
        </mxCell>
        <mxCell id="hvpdyd5kps7s42NE-Zhm-42" value="" style="endArrow=none;html=1;exitX=0.964;exitY=0.707;exitDx=0;exitDy=0;exitPerimeter=0;entryX=-0.012;entryY=0.368;entryDx=0;entryDy=0;entryPerimeter=0;" parent="1" source="hvpdyd5kps7s42NE-Zhm-14" target="hvpdyd5kps7s42NE-Zhm-38" edge="1">
          <mxGeometry width="50" height="50" relative="1" as="geometry">
            <mxPoint x="1010" y="175" as="sourcePoint" />
            <mxPoint x="1060" y="125" as="targetPoint" />
          </mxGeometry>
        </mxCell>
        <mxCell id="hvpdyd5kps7s42NE-Zhm-43" value="" style="endArrow=none;html=1;entryX=0.333;entryY=1.011;entryDx=0;entryDy=0;entryPerimeter=0;exitX=0.5;exitY=0;exitDx=0;exitDy=0;" parent="1" source="hvpdyd5kps7s42NE-Zhm-40" target="hvpdyd5kps7s42NE-Zhm-14" edge="1">
          <mxGeometry width="50" height="50" relative="1" as="geometry">
            <mxPoint x="920" y="220" as="sourcePoint" />
            <mxPoint x="970" y="170" as="targetPoint" />
          </mxGeometry>
        </mxCell>
        <mxCell id="hvpdyd5kps7s42NE-Zhm-44" value="" style="endArrow=none;html=1;exitX=0;exitY=0.5;exitDx=0;exitDy=0;entryX=1;entryY=1;entryDx=0;entryDy=0;" parent="1" source="hvpdyd5kps7s42NE-Zhm-45" target="hvpdyd5kps7s42NE-Zhm-1" edge="1">
          <mxGeometry width="50" height="50" relative="1" as="geometry">
            <mxPoint x="440" y="150" as="sourcePoint" />
            <mxPoint x="490" y="100" as="targetPoint" />
          </mxGeometry>
        </mxCell>
        <mxCell id="hvpdyd5kps7s42NE-Zhm-45" value="Manages" style="rhombus;whiteSpace=wrap;html=1;" parent="1" vertex="1">
          <mxGeometry x="335" y="110" width="150" height="80" as="geometry" />
        </mxCell>
        <mxCell id="hvpdyd5kps7s42NE-Zhm-46" value="" style="endArrow=none;html=1;exitX=0;exitY=0;exitDx=0;exitDy=0;entryX=0.5;entryY=1;entryDx=0;entryDy=0;" parent="1" source="hvpdyd5kps7s42NE-Zhm-2" target="hvpdyd5kps7s42NE-Zhm-45" edge="1">
          <mxGeometry width="50" height="50" relative="1" as="geometry">
            <mxPoint x="550" y="180" as="sourcePoint" />
            <mxPoint x="400" y="70" as="targetPoint" />
          </mxGeometry>
        </mxCell>
        <mxCell id="hvpdyd5kps7s42NE-Zhm-47" value="N" style="text;html=1;align=center;verticalAlign=middle;resizable=0;points=[];autosize=1;" parent="1" vertex="1">
          <mxGeometry x="280" y="80" width="20" height="20" as="geometry" />
        </mxCell>
        <mxCell id="hvpdyd5kps7s42NE-Zhm-51" value="1" style="text;html=1;align=center;verticalAlign=middle;resizable=0;points=[];autosize=1;" parent="1" vertex="1">
          <mxGeometry x="530" y="180" width="20" height="20" as="geometry" />
        </mxCell>
        <mxCell id="hvpdyd5kps7s42NE-Zhm-52" value="Approval" style="rhombus;whiteSpace=wrap;html=1;" parent="1" vertex="1">
          <mxGeometry x="677" y="100" width="150" height="80" as="geometry" />
        </mxCell>
        <mxCell id="hvpdyd5kps7s42NE-Zhm-53" value="" style="endArrow=none;html=1;entryX=0;entryY=0.5;entryDx=0;entryDy=0;" parent="1" target="hvpdyd5kps7s42NE-Zhm-52" edge="1">
          <mxGeometry width="50" height="50" relative="1" as="geometry">
            <mxPoint x="670" y="180" as="sourcePoint" />
            <mxPoint x="720" y="130" as="targetPoint" />
          </mxGeometry>
        </mxCell>
        <mxCell id="hvpdyd5kps7s42NE-Zhm-54" value="1" style="text;html=1;align=center;verticalAlign=middle;resizable=0;points=[];autosize=1;" parent="1" vertex="1">
          <mxGeometry x="650" y="160" width="20" height="20" as="geometry" />
        </mxCell>
        <mxCell id="hvpdyd5kps7s42NE-Zhm-56" value="" style="endArrow=none;html=1;exitX=1;exitY=0.5;exitDx=0;exitDy=0;" parent="1" source="hvpdyd5kps7s42NE-Zhm-52" edge="1">
          <mxGeometry width="50" height="50" relative="1" as="geometry">
            <mxPoint x="740" y="120" as="sourcePoint" />
            <mxPoint x="790" y="70" as="targetPoint" />
          </mxGeometry>
        </mxCell>
        <mxCell id="hvpdyd5kps7s42NE-Zhm-57" value="N" style="text;html=1;align=center;verticalAlign=middle;resizable=0;points=[];autosize=1;" parent="1" vertex="1">
          <mxGeometry x="780" y="70" width="20" height="20" as="geometry" />
        </mxCell>
        <mxCell id="hvpdyd5kps7s42NE-Zhm-58" value="Payment" style="ellipse;whiteSpace=wrap;html=1;" parent="1" vertex="1">
          <mxGeometry x="172.5" y="-100" width="120" height="80" as="geometry" />
        </mxCell>
        <mxCell id="hvpdyd5kps7s42NE-Zhm-59" value="PayCheck" style="ellipse;whiteSpace=wrap;html=1;" parent="1" vertex="1">
          <mxGeometry x="327.5" y="-160" width="120" height="80" as="geometry" />
        </mxCell>
        <mxCell id="hvpdyd5kps7s42NE-Zhm-60" value="DirectDeposit" style="ellipse;whiteSpace=wrap;html=1;" parent="1" vertex="1">
          <mxGeometry x="172.5" y="-220" width="120" height="80" as="geometry" />
        </mxCell>
        <mxCell id="hvpdyd5kps7s42NE-Zhm-61" value="" style="endArrow=none;html=1;entryX=0.037;entryY=0.671;entryDx=0;entryDy=0;entryPerimeter=0;exitX=0.984;exitY=0.373;exitDx=0;exitDy=0;exitPerimeter=0;" parent="1" source="hvpdyd5kps7s42NE-Zhm-58" target="hvpdyd5kps7s42NE-Zhm-59" edge="1">
          <mxGeometry width="50" height="50" relative="1" as="geometry">
            <mxPoint x="312.5" y="-60" as="sourcePoint" />
            <mxPoint x="362.5" y="-110" as="targetPoint" />
          </mxGeometry>
        </mxCell>
        <mxCell id="hvpdyd5kps7s42NE-Zhm-62" value="" style="endArrow=none;html=1;entryX=0.5;entryY=1;entryDx=0;entryDy=0;exitX=0.444;exitY=0.022;exitDx=0;exitDy=0;exitPerimeter=0;" parent="1" source="hvpdyd5kps7s42NE-Zhm-58" target="hvpdyd5kps7s42NE-Zhm-60" edge="1">
          <mxGeometry width="50" height="50" relative="1" as="geometry">
            <mxPoint x="252.5" y="-100" as="sourcePoint" />
            <mxPoint x="302.5" y="-150" as="targetPoint" />
          </mxGeometry>
        </mxCell>
        <mxCell id="hvpdyd5kps7s42NE-Zhm-63" value="" style="endArrow=none;html=1;entryX=0.063;entryY=0.773;entryDx=0;entryDy=0;entryPerimeter=0;" parent="1" target="hvpdyd5kps7s42NE-Zhm-8" edge="1">
          <mxGeometry width="50" height="50" relative="1" as="geometry">
            <mxPoint x="910" y="10" as="sourcePoint" />
            <mxPoint x="960" y="-40" as="targetPoint" />
          </mxGeometry>
        </mxCell>
        <mxCell id="hvpdyd5kps7s42NE-Zhm-64" value="" style="endArrow=none;html=1;entryX=0;entryY=0.5;entryDx=0;entryDy=0;" parent="1" target="hvpdyd5kps7s42NE-Zhm-7" edge="1">
          <mxGeometry width="50" height="50" relative="1" as="geometry">
            <mxPoint x="910" y="40" as="sourcePoint" />
            <mxPoint x="960" y="-10" as="targetPoint" />
          </mxGeometry>
        </mxCell>
        <mxCell id="hvpdyd5kps7s42NE-Zhm-65" value="" style="endArrow=none;html=1;exitX=0.201;exitY=0.075;exitDx=0;exitDy=0;exitPerimeter=0;" parent="1" source="hvpdyd5kps7s42NE-Zhm-14" edge="1">
          <mxGeometry width="50" height="50" relative="1" as="geometry">
            <mxPoint x="860" y="120" as="sourcePoint" />
            <mxPoint x="910" y="70" as="targetPoint" />
          </mxGeometry>
        </mxCell>
        <mxCell id="hvpdyd5kps7s42NE-Zhm-66" value="" style="endArrow=none;html=1;entryX=0.5;entryY=1;entryDx=0;entryDy=0;exitX=0.569;exitY=-0.011;exitDx=0;exitDy=0;exitPerimeter=0;" parent="1" source="hvpdyd5kps7s42NE-Zhm-3" target="hvpdyd5kps7s42NE-Zhm-9" edge="1">
          <mxGeometry width="50" height="50" relative="1" as="geometry">
            <mxPoint x="850" y="10" as="sourcePoint" />
            <mxPoint x="900" y="-40" as="targetPoint" />
          </mxGeometry>
        </mxCell>
        <mxCell id="hvpdyd5kps7s42NE-Zhm-67" value="" style="endArrow=none;html=1;entryX=0.5;entryY=1;entryDx=0;entryDy=0;exitX=0.576;exitY=0.003;exitDx=0;exitDy=0;exitPerimeter=0;" parent="1" source="hvpdyd5kps7s42NE-Zhm-1" target="hvpdyd5kps7s42NE-Zhm-58" edge="1">
          <mxGeometry width="50" height="50" relative="1" as="geometry">
            <mxPoint x="240" y="20" as="sourcePoint" />
            <mxPoint x="290" y="-30" as="targetPoint" />
          </mxGeometry>
        </mxCell>
        <mxCell id="hvpdyd5kps7s42NE-Zhm-68" value="" style="endArrow=none;html=1;entryX=0;entryY=0;entryDx=0;entryDy=0;exitX=1;exitY=0.5;exitDx=0;exitDy=0;" parent="1" source="hvpdyd5kps7s42NE-Zhm-5" target="hvpdyd5kps7s42NE-Zhm-1" edge="1">
          <mxGeometry width="50" height="50" relative="1" as="geometry">
            <mxPoint x="105" y="50" as="sourcePoint" />
            <mxPoint x="155" as="targetPoint" />
          </mxGeometry>
        </mxCell>
        <mxCell id="hvpdyd5kps7s42NE-Zhm-69" value="" style="endArrow=none;html=1;entryX=0.618;entryY=1.003;entryDx=0;entryDy=0;exitX=0.549;exitY=-0.019;exitDx=0;exitDy=0;exitPerimeter=0;entryPerimeter=0;" parent="1" source="hvpdyd5kps7s42NE-Zhm-6" target="hvpdyd5kps7s42NE-Zhm-1" edge="1">
          <mxGeometry width="50" height="50" relative="1" as="geometry">
            <mxPoint x="210" y="110" as="sourcePoint" />
            <mxPoint x="260" y="60" as="targetPoint" />
          </mxGeometry>
        </mxCell>
        <mxCell id="hvpdyd5kps7s42NE-Zhm-70" value="" style="endArrow=none;html=1;exitX=1;exitY=0.5;exitDx=0;exitDy=0;" parent="1" source="hvpdyd5kps7s42NE-Zhm-4" edge="1">
          <mxGeometry width="50" height="50" relative="1" as="geometry">
            <mxPoint x="130" y="130" as="sourcePoint" />
            <mxPoint x="180" y="80" as="targetPoint" />
          </mxGeometry>
        </mxCell>
        <mxCell id="hvpdyd5kps7s42NE-Zhm-71" value="" style="endArrow=none;html=1;entryX=0.604;entryY=-0.029;entryDx=0;entryDy=0;entryPerimeter=0;" parent="1" target="hvpdyd5kps7s42NE-Zhm-12" edge="1">
          <mxGeometry width="50" height="50" relative="1" as="geometry">
            <mxPoint x="670" y="240" as="sourcePoint" />
            <mxPoint x="720" y="190" as="targetPoint" />
          </mxGeometry>
        </mxCell>
        <mxCell id="hvpdyd5kps7s42NE-Zhm-72" value="" style="endArrow=none;html=1;entryX=0;entryY=1;entryDx=0;entryDy=0;exitX=0.688;exitY=0.033;exitDx=0;exitDy=0;exitPerimeter=0;" parent="1" source="hvpdyd5kps7s42NE-Zhm-13" target="hvpdyd5kps7s42NE-Zhm-2" edge="1">
          <mxGeometry width="50" height="50" relative="1" as="geometry">
            <mxPoint x="530" y="280" as="sourcePoint" />
            <mxPoint x="580" y="230" as="targetPoint" />
          </mxGeometry>
        </mxCell>
        <mxCell id="hvpdyd5kps7s42NE-Zhm-74" value="" style="endArrow=none;html=1;exitX=0.075;exitY=0.238;exitDx=0;exitDy=0;exitPerimeter=0;entryX=0.943;entryY=0.76;entryDx=0;entryDy=0;entryPerimeter=0;" parent="1" source="hvpdyd5kps7s42NE-Zhm-5" target="hvpdyd5kps7s42NE-Zhm-16" edge="1">
          <mxGeometry width="50" height="50" relative="1" as="geometry">
            <mxPoint x="-70" as="sourcePoint" />
            <mxPoint x="-20" y="-50" as="targetPoint" />
          </mxGeometry>
        </mxCell>
      </root>
    </mxGraphModel>
  </diagram>
</mxfile>
